<svg width="20" height="21" viewBox="0 0 20 21" fill="none" xmlns="http://www.w3.org/2000/svg">
<path d="M1.79415 11.03C2.33115 8.342 2.60015 7 3.48715 6.134C3.65108 5.97444 3.82839 5.82924 4.01715 5.7C5.04015 5 6.41015 5 9.15015 5H10.8531C13.5921 5 14.9611 5 15.9831 5.7C16.1731 5.83 16.3501 5.976 16.5131 6.135C17.4011 7 17.6701 8.343 18.2071 11.029C18.9781 14.885 19.3641 16.813 18.4761 18.179C18.3161 18.427 18.1281 18.656 17.9161 18.862C16.7501 20 14.7851 20 10.8531 20H9.15015C5.21715 20 3.25115 20 2.08515 18.862C1.87418 18.6557 1.6867 18.4266 1.52615 18.179C0.638146 16.813 1.02415 14.885 1.79615 11.029L1.79415 11.03Z" stroke="#121212" stroke-width="1.5"/>
<path d="M13 9C13.5523 9 14 8.55228 14 8C14 7.44772 13.5523 7 13 7C12.4477 7 12 7.44772 12 8C12 8.55228 12.4477 9 13 9Z" fill="#121212"/>
<path d="M7 9C7.55228 9 8 8.55228 8 8C8 7.44772 7.55228 7 7 7C6.44772 7 6 7.44772 6 8C6 8.55228 6.44772 9 7 9Z" fill="#121212"/>
<path d="M7 5V4C7 3.20435 7.31607 2.44129 7.87868 1.87868C8.44129 1.31607 9.20435 1 10 1C10.7956 1 11.5587 1.31607 12.1213 1.87868C12.6839 2.44129 13 3.20435 13 4V5" stroke="#121212" stroke-width="1.5" stroke-linecap="round"/>
</svg>
